/vscmnt/brussel_pixiu_data/_data_brussel/112/vsc11236/PredSimResults/SUBJ07opt3D/expIG/worker_02.mot
version=1
nRows=9
nColumns=50
inDegrees=yes
endheader
                time	         pelvis_tilt	         pelvis_list	     pelvis_rotation	           pelvis_tx	           pelvis_ty	           pelvis_tz	       hip_flexion_r	     hip_adduction_r	      hip_rotation_r	        knee_angle_r	       ankle_angle_r	         mtp_angle_r	       hip_flexion_l	     hip_adduction_l	      hip_rotation_l	        knee_angle_l	       ankle_angle_l	         mtp_angle_l	    lumbar_extension	      lumbar_bending	     lumbar_rotation	 ercspn_r/activation	 intobl_r/activation	 extobl_r/activation	    abd_r/activation	    add_r/activation	hamstrings_r/activation	bifemsh_r/activation	glut_max_r/activation	iliopsoas_r/activation	rect_fem_r/activation	  vasti_r/activation	gastroc_r/activation	 soleus_r/activation	tib_ant_r/activation	 ercspn_l/activation	 intobl_l/activation	 extobl_l/activation	    abd_l/activation	    add_l/activation	hamstrings_l/activation	bifemsh_l/activation	glut_max_l/activation	iliopsoas_l/activation	rect_fem_l/activation	  vasti_l/activation	gastroc_l/activation	 soleus_l/activation	tib_ant_l/activation	
          0.71075196	         -1.28109031	          0.95173612	         -8.84571916	          0.49752637	          0.86886215	          0.02124285	        -11.51326754	         -0.42021377	          2.26711752	         -7.15356715	         11.46362416	         18.55265064	         24.03997822	         -1.18522169	         -2.48348171	        -10.92567340	          0.09292980	          0.23042152	         -6.50071372	          2.53349937	         -0.85504858	          0.05790851	          0.00999999	          0.00999999	          0.05447490	          0.01000000	          0.01000029	          0.09459157	          0.01000002	          0.11853895	          0.01000010	          0.00999999	          0.11692177	          0.24505035	          0.01914922	          0.12162861	          0.11749543	          0.01000000	          0.01000000	          0.09488317	          0.02736409	          0.08436629	          0.04635096	          0.01529920	          0.01126075	          0.01120906	          0.01492344	          0.01217483	          0.29305935	
          0.72496700	         -1.33900757	          0.82615091	         -8.57847928	          0.50930759	          0.86765804	          0.02013022	        -11.82418163	         -0.35487880	          1.61426463	         -8.02874325	         11.20637478	         19.81242399	         23.51683009	         -0.98797668	         -2.21919996	        -11.34433757	         -0.07907713	          0.22767707	         -6.38558475	          2.19554198	         -0.63707738	          0.07334304	          0.00999999	          0.00999999	          0.04404086	          0.01000000	          0.01000260	          0.07647364	          0.01000013	          0.09583418	          0.01000020	          0.01172139	          0.10369259	          0.24329655	          0.01548140	          0.11115100	          0.11580225	          0.01000000	          0.01000002	          0.09287697	          0.03418505	          0.06820692	          0.05816631	          0.01236881	          0.01000000	          0.00999999	          0.01206503	          0.00999999	          0.31302126	
          0.73918204	         -1.39221032	          0.69944152	         -8.26146977	          0.52128440	          0.86669287	          0.01888760	        -12.06089689	         -0.28646127	          0.93457677	         -9.06337065	         10.82838583	         21.10560975	         23.01627447	         -0.81503722	         -1.96807750	        -11.76506272	         -0.34594759	          0.22295526	         -6.25933534	          1.84074982	         -0.40619021	          0.08744335	          0.00999999	          0.00999999	          0.03560534	          0.01000000	          0.01000066	          0.06182600	          0.01000002	          0.07747824	          0.01892417	          0.01720468	          0.08383147	          0.23748446	          0.01251612	          0.11655691	          0.10800809	          0.01000000	          0.03823376	          0.10477606	          0.03972833	          0.05514268	          0.05196698	          0.01000000	          0.01000000	          0.01787167	          0.01000000	          0.00999999	          0.33813449	
          0.75339708	         -1.44038675	          0.56732573	         -7.89461969	          0.53340864	          0.86609247	          0.01751823	        -12.21406509	         -0.21184478	          0.22729599	        -10.25536803	         10.27066245	         22.42471386	         22.56150595	         -0.66036368	         -1.75867772	        -12.26599075	         -0.57238920	          0.21505843	         -6.12334549	          1.47718930	         -0.16536989	          0.10190967	          0.00999999	          0.00999999	          0.02878555	          0.01000000	          0.01000058	          0.04998394	          0.01000019	          0.06263818	          0.01529949	          0.02275323	          0.06777451	          0.22701730	          0.01011880	          0.11596907	          0.08732039	          0.01000000	          0.06078132	          0.10855232	          0.04538000	          0.04458075	          0.05234309	          0.01000000	          0.01000000	          0.03345125	          0.01000000	          0.00999999	          0.35033367	
          0.76761212	         -1.48393250	          0.42860107	         -7.48293330	          0.54563078	          0.86600184	          0.01603413	        -12.26446635	         -0.13218239	         -0.50555281	        -11.61614419	          9.47390930	         23.75959410	         22.13526281	         -0.51787472	         -1.58291319	        -12.84940191	         -0.59056353	          0.21410001	         -5.97657536	          1.11206320	          0.08136005	          0.11821898	          0.00999999	          0.00999999	          0.02327201	          0.01000003	          0.01380996	          0.04041010	          0.01341330	          0.05064056	          0.01236907	          0.03042507	          0.05479308	          0.21147923	          0.00999999	          0.11265436	          0.07059517	          0.00999999	          0.08007983	          0.11038220	          0.04878469	          0.03604185	          0.05573773	          0.01000000	          0.01000000	          0.04391014	          0.01000000	          0.00999999	          0.34363562	
          0.78182716	         -1.52352276	          0.28208927	         -7.03363179	          0.55789078	          0.86652321	          0.01444990	        -12.19835051	         -0.04838465	         -1.27091765	        -13.14435339	          8.40389108	         25.06857298	         21.71920474	         -0.38235303	         -1.41238005	        -13.49901612	         -0.32023938	          0.26739014	         -5.81956398	          0.75280117	          0.33266456	          0.12725326	          0.00999999	          0.01000000	          0.01881452	          0.02476752	          0.01526387	          0.03267001	          0.01236918	          0.04094094	          0.01000003	          0.03749087	          0.04429810	          0.19036613	          0.00999999	          0.11027491	          0.05707348	          0.01000000	          0.08970352	          0.11505847	          0.05327080	          0.02913848	          0.06664309	          0.01000001	          0.01000001	          0.04959997	          0.01000000	          0.00999999	          0.30905064	
          0.79604220	         -1.55993982	          0.12335721	         -6.55252806	          0.57012947	          0.86766854	          0.01278752	        -11.99854644	          0.04211052	         -2.07345469	        -14.85515492	          7.08468263	         26.26135975	         21.28234018	         -0.25386713	         -1.21824827	        -14.15005597	          0.20934543	          0.40161526	         -5.65480174	          0.40679695	          0.58626482	          0.13337000	          0.00999999	          0.00999999	          0.01521082	          0.04433079	          0.01616846	          0.02641245	          0.01000003	          0.03309917	          0.01000001	          0.04185407	          0.03581330	          0.16571807	          0.00999999	          0.10584700	          0.04614171	          0.00999999	          0.09666770	          0.12503676	          0.05891058	          0.02355739	          0.07471190	          0.01000000	          0.01000000	          0.05097277	          0.01000000	          0.00999999	          0.26835832	
          0.81025724	         -1.59332052	         -0.05291585	         -6.04443743	          0.58230010	          0.86935147	          0.01106444	        -11.64485886	          0.13944391	         -2.91778615	        -16.78247124	          5.59970561	         27.19471432	         20.79018900	         -0.13801458	         -0.98767760	        -14.70912310	          0.81558380	          0.58693856	         -5.48559012	          0.08153668	          0.83965909	          0.13674904	          0.00999999	          0.01000000	          0.01229736	          0.05688337	          0.02109334	          0.02135345	          0.01000000	          0.02675941	          0.01000000	          0.04416955	          0.02895368	          0.14091187	          0.00999999	          0.10331432	          0.03730380	          0.00999999	          0.10330649	          0.13447514	          0.06691587	          0.01904539	          0.07558145	          0.01000000	          0.01000000	          0.04766862	          0.01000000	          0.00999999	          0.23604632	
          0.82447227	         -1.62267008	         -0.25026673	         -5.51422909	          0.59437932	          0.87140450	          0.00929216	        -11.11954438	          0.23808152	         -3.80769636	        -18.97037208	          4.06979499	         27.70124315	         20.22491341	         -0.04185525	         -0.72318759	        -15.12805321	          1.39728030	          0.80730306	         -5.31394997	         -0.21781626	          1.09047423	          0.13644540	          0.00999999	          0.01000000	          0.00999999	          0.07352759	          0.02644635	          0.01726345	          0.00999999	          0.02163395	          0.01000000	          0.04126834	          0.02340793	          0.11544910	          0.00999999	          0.10045646	          0.03015868	          0.00999999	          0.10641865	          0.14367895	          0.07624373	          0.01539780	          0.07338307	          0.01000000	          0.01000000	          0.04861423	          0.01000000	          0.00999999	          0.21372737	
